<svg xmlns="http://www.w3.org/2000/svg"  viewBox="0 0 30 30" width="30px" height="30px"><path fill="#ffeea3" d="M4,13.5c-0.282,0-0.494-0.111-0.646-0.34L2.923,12.5h4.924c0.282,0,0.494,0.111,0.646,0.34 l0.431,0.66H4z"/><path fill="#f5c276" d="M7.846,12H2l0.937,1.438C3.187,13.813,3.562,14,4,14h5.846l-0.938-1.438 C8.659,12.188,8.284,12,7.846,12L7.846,12z"/><path fill="#ffeea3" d="M21.076,13.5l0.434-0.665c0.149-0.224,0.361-0.335,0.644-0.335h4.924l-0.434,0.665 C26.494,13.389,26.282,13.5,26,13.5H21.076z"/><path fill="#f5c276" d="M28,12h-5.846c-0.438,0-0.813,0.188-1.063,0.563L20.154,14H26c0.437,0,0.812-0.188,1.062-0.563 L28,12L28,12z"/><g><path fill="#ffeea3" d="M15,10.882l-2.531,5.062l-2.415-4.197C9.671,10.987,8.879,10.5,8,10.5H2 c-0.282,0-0.494-0.111-0.646-0.34L0.923,9.5h7.024c1.157,0,2.333,0.731,2.86,1.778l1.595,2.758L15,9.078l2.598,4.958l1.581-2.732 C19.72,10.231,20.896,9.5,22.053,9.5h7.024l-0.434,0.665C28.494,10.389,28.282,10.5,28,10.5h-6c-0.879,0-1.671,0.487-2.066,1.271 l-2.402,4.173L15,10.882z"/><path fill="#f5c276" d="M28,10h-5.948H28 M15,8l-2.619,5l-1.127-1.947C10.649,9.853,9.292,9,7.948,9H0l0.937,1.438 C1.187,10.813,1.562,11,2,11h6c0.685,0,1.311,0.385,1.62,0.996L12.5,17l2.5-5l2.5,5l2.88-5.004C20.689,11.385,21.315,11,22,11h6 c0.437,0,0.812-0.188,1.062-0.563L30,9h-7.948c-1.344,0-2.702,0.853-3.306,2.053L17.619,13L15,8L15,8z"/></g><g><path fill="#ffeea3" d="M15,16.882l-2.531,5.062l-2.415-4.197C9.671,16.987,8.879,16.5,8,16.5H6 c-0.282,0-0.494-0.111-0.646-0.34L4.923,15.5h3.192c1.028,0,1.994,0.549,2.521,1.433l1.845,3.101L15,15.1l2.52,4.935l1.845-3.101 c0.526-0.884,1.492-1.433,2.521-1.433h3.192l-0.434,0.665C24.494,16.389,24.282,16.5,24,16.5h-2c-0.879,0-1.671,0.487-2.066,1.271 l-2.402,4.173L15,16.882z"/><path fill="#f5c276" d="M24,16h-2c-0.511,0-0.997,0.135-1.419,0.381C20.966,16.137,21.418,16,21.885,16H24 M8.115,16 c0.467,0,0.919,0.137,1.304,0.381C8.997,16.135,8.511,16,8,16H8.115 M15,14l-2.552,5l-1.383-2.323C10.446,15.637,9.325,15,8.115,15 H4l0.937,1.438C5.187,16.813,5.562,17,6,17h2c0.685,0,1.311,0.385,1.62,0.996L12.5,23l2.5-5l2.5,5l2.88-5.004 C20.689,17.385,21.315,17,22,17h2c0.437,0,0.812-0.188,1.062-0.563L26,15h-4.115c-1.21,0-2.331,0.637-2.95,1.677L17.552,19L15,14 L15,14z"/></g></svg>